<mxfile host="app.diagrams.net" agent="Mozilla/5.0 (Windows NT 10.0; Win64; x64) AppleWebKit/537.36 (KHTML, like Gecko) Chrome/131.0.0.0 Safari/537.36 Edg/131.0.0.0" version="24.9.1">
  <diagram name="第 1 页" id="4Qb3eHDfw9Om7qWkq6Wr">
    <mxGraphModel dx="744" dy="659" grid="1" gridSize="10" guides="1" tooltips="1" connect="1" arrows="1" fold="1" page="1" pageScale="1" pageWidth="827" pageHeight="1169" math="0" shadow="0">
      <root>
        <mxCell id="0" />
        <mxCell id="1" parent="0" />
        <mxCell id="tKXsHPgBx53j9vQfCHE4-1" value="用户注册" style="text;strokeColor=none;align=center;fillColor=none;html=1;verticalAlign=middle;whiteSpace=wrap;rounded=0;" vertex="1" parent="1">
          <mxGeometry x="414" y="40" width="60" height="30" as="geometry" />
        </mxCell>
        <mxCell id="tKXsHPgBx53j9vQfCHE4-2" value="用户" style="rounded=0;whiteSpace=wrap;html=1;" vertex="1" parent="1">
          <mxGeometry x="210" y="110" width="90" height="40" as="geometry" />
        </mxCell>
        <mxCell id="tKXsHPgBx53j9vQfCHE4-3" value="注册管理界面" style="rounded=0;whiteSpace=wrap;html=1;" vertex="1" parent="1">
          <mxGeometry x="390" y="110" width="100" height="40" as="geometry" />
        </mxCell>
        <mxCell id="tKXsHPgBx53j9vQfCHE4-4" value="注册控制后台" style="rounded=0;whiteSpace=wrap;html=1;" vertex="1" parent="1">
          <mxGeometry x="570" y="110" width="100" height="40" as="geometry" />
        </mxCell>
        <mxCell id="tKXsHPgBx53j9vQfCHE4-5" value="用户数据库" style="rounded=0;whiteSpace=wrap;html=1;" vertex="1" parent="1">
          <mxGeometry x="740" y="110" width="110" height="40" as="geometry" />
        </mxCell>
        <mxCell id="tKXsHPgBx53j9vQfCHE4-6" value="" style="endArrow=none;dashed=1;html=1;rounded=0;entryX=0.5;entryY=1;entryDx=0;entryDy=0;" edge="1" parent="1" target="tKXsHPgBx53j9vQfCHE4-2">
          <mxGeometry width="50" height="50" relative="1" as="geometry">
            <mxPoint x="255" y="560" as="sourcePoint" />
            <mxPoint x="360" y="230" as="targetPoint" />
          </mxGeometry>
        </mxCell>
        <mxCell id="tKXsHPgBx53j9vQfCHE4-9" value="" style="endArrow=none;dashed=1;html=1;rounded=0;entryX=0.5;entryY=1;entryDx=0;entryDy=0;" edge="1" parent="1" source="tKXsHPgBx53j9vQfCHE4-20" target="tKXsHPgBx53j9vQfCHE4-4">
          <mxGeometry width="50" height="50" relative="1" as="geometry">
            <mxPoint x="619.44" y="570" as="sourcePoint" />
            <mxPoint x="619.44" y="160" as="targetPoint" />
          </mxGeometry>
        </mxCell>
        <mxCell id="tKXsHPgBx53j9vQfCHE4-10" value="" style="endArrow=none;dashed=1;html=1;rounded=0;entryX=0.5;entryY=1;entryDx=0;entryDy=0;" edge="1" parent="1" source="tKXsHPgBx53j9vQfCHE4-23">
          <mxGeometry width="50" height="50" relative="1" as="geometry">
            <mxPoint x="794.44" y="570" as="sourcePoint" />
            <mxPoint x="795" y="150" as="targetPoint" />
          </mxGeometry>
        </mxCell>
        <mxCell id="tKXsHPgBx53j9vQfCHE4-11" value="" style="endArrow=classic;html=1;rounded=0;entryX=0.5;entryY=1;entryDx=0;entryDy=0;" edge="1" parent="1" target="tKXsHPgBx53j9vQfCHE4-12">
          <mxGeometry width="50" height="50" relative="1" as="geometry">
            <mxPoint x="250" y="240" as="sourcePoint" />
            <mxPoint x="420" y="240" as="targetPoint" />
          </mxGeometry>
        </mxCell>
        <mxCell id="tKXsHPgBx53j9vQfCHE4-16" value="" style="endArrow=none;dashed=1;html=1;rounded=0;entryX=0.5;entryY=1;entryDx=0;entryDy=0;" edge="1" parent="1" source="tKXsHPgBx53j9vQfCHE4-12" target="tKXsHPgBx53j9vQfCHE4-3">
          <mxGeometry width="50" height="50" relative="1" as="geometry">
            <mxPoint x="440" y="600" as="sourcePoint" />
            <mxPoint x="443.44" y="180" as="targetPoint" />
          </mxGeometry>
        </mxCell>
        <mxCell id="tKXsHPgBx53j9vQfCHE4-17" value="" style="endArrow=none;dashed=1;html=1;rounded=0;entryX=0.5;entryY=1;entryDx=0;entryDy=0;" edge="1" parent="1" source="tKXsHPgBx53j9vQfCHE4-18">
          <mxGeometry width="50" height="50" relative="1" as="geometry">
            <mxPoint x="440" y="560" as="sourcePoint" />
            <mxPoint x="439.0000000000002" y="240" as="targetPoint" />
          </mxGeometry>
        </mxCell>
        <mxCell id="tKXsHPgBx53j9vQfCHE4-12" value="" style="rounded=0;whiteSpace=wrap;html=1;rotation=90;" vertex="1" parent="1">
          <mxGeometry x="420" y="230" width="40" height="20" as="geometry" />
        </mxCell>
        <mxCell id="tKXsHPgBx53j9vQfCHE4-19" value="" style="endArrow=none;dashed=1;html=1;rounded=0;entryX=0.5;entryY=1;entryDx=0;entryDy=0;" edge="1" parent="1">
          <mxGeometry width="50" height="50" relative="1" as="geometry">
            <mxPoint x="439.44" y="550" as="sourcePoint" />
            <mxPoint x="439.44000000000045" y="470" as="targetPoint" />
          </mxGeometry>
        </mxCell>
        <mxCell id="tKXsHPgBx53j9vQfCHE4-18" value="" style="rounded=0;whiteSpace=wrap;html=1;rotation=90;" vertex="1" parent="1">
          <mxGeometry x="420" y="450" width="40" height="20" as="geometry" />
        </mxCell>
        <mxCell id="tKXsHPgBx53j9vQfCHE4-21" value="" style="endArrow=none;dashed=1;html=1;rounded=0;" edge="1" parent="1" source="tKXsHPgBx53j9vQfCHE4-22">
          <mxGeometry width="50" height="50" relative="1" as="geometry">
            <mxPoint x="620" y="560" as="sourcePoint" />
            <mxPoint x="620" y="290" as="targetPoint" />
          </mxGeometry>
        </mxCell>
        <mxCell id="tKXsHPgBx53j9vQfCHE4-20" value="" style="rounded=0;whiteSpace=wrap;html=1;rotation=90;" vertex="1" parent="1">
          <mxGeometry x="600" y="260" width="40" height="20" as="geometry" />
        </mxCell>
        <mxCell id="tKXsHPgBx53j9vQfCHE4-24" value="" style="endArrow=none;dashed=1;html=1;rounded=0;entryX=0.5;entryY=1;entryDx=0;entryDy=0;" edge="1" parent="1">
          <mxGeometry width="50" height="50" relative="1" as="geometry">
            <mxPoint x="794.44" y="560" as="sourcePoint" />
            <mxPoint x="794.7200000000003" y="340" as="targetPoint" />
          </mxGeometry>
        </mxCell>
        <mxCell id="tKXsHPgBx53j9vQfCHE4-23" value="" style="rounded=0;whiteSpace=wrap;html=1;rotation=90;" vertex="1" parent="1">
          <mxGeometry x="775" y="330" width="40" height="20" as="geometry" />
        </mxCell>
        <mxCell id="tKXsHPgBx53j9vQfCHE4-25" value="" style="endArrow=classic;html=1;rounded=0;entryX=0.5;entryY=1;entryDx=0;entryDy=0;" edge="1" parent="1">
          <mxGeometry width="50" height="50" relative="1" as="geometry">
            <mxPoint x="430" y="260" as="sourcePoint" />
            <mxPoint x="610" y="260" as="targetPoint" />
          </mxGeometry>
        </mxCell>
        <mxCell id="tKXsHPgBx53j9vQfCHE4-26" value="" style="endArrow=none;dashed=1;html=1;rounded=0;" edge="1" parent="1" target="tKXsHPgBx53j9vQfCHE4-22">
          <mxGeometry width="50" height="50" relative="1" as="geometry">
            <mxPoint x="620" y="560" as="sourcePoint" />
            <mxPoint x="620" y="290" as="targetPoint" />
          </mxGeometry>
        </mxCell>
        <mxCell id="tKXsHPgBx53j9vQfCHE4-22" value="" style="rounded=0;whiteSpace=wrap;html=1;rotation=90;" vertex="1" parent="1">
          <mxGeometry x="600" y="410" width="40" height="20" as="geometry" />
        </mxCell>
        <mxCell id="tKXsHPgBx53j9vQfCHE4-27" value="" style="endArrow=classic;html=1;rounded=0;" edge="1" parent="1">
          <mxGeometry width="50" height="50" relative="1" as="geometry">
            <mxPoint x="624" y="440" as="sourcePoint" />
            <mxPoint x="450" y="440" as="targetPoint" />
          </mxGeometry>
        </mxCell>
        <mxCell id="tKXsHPgBx53j9vQfCHE4-28" value="" style="endArrow=classic;html=1;rounded=0;entryX=0.5;entryY=1;entryDx=0;entryDy=0;" edge="1" parent="1">
          <mxGeometry width="50" height="50" relative="1" as="geometry">
            <mxPoint x="620" y="300" as="sourcePoint" />
            <mxPoint x="800" y="300" as="targetPoint" />
          </mxGeometry>
        </mxCell>
      </root>
    </mxGraphModel>
  </diagram>
</mxfile>
